<?xml version="1.0" encoding="UTF-8" standalone="no"?>
<!DOCTYPE svg PUBLIC "-//W3C//DTD SVG 1.1//EN" "http://www.w3.org/Graphics/SVG/1.1/DTD/svg11.dtd">
<svg width="100%" height="100%" viewBox="0 0 1236 262" version="1.1" xmlns="http://www.w3.org/2000/svg" xmlns:xlink="http://www.w3.org/1999/xlink" xml:space="preserve" xmlns:serif="http://www.serif.com/" style="fill-rule:evenodd;clip-rule:evenodd;stroke-linejoin:round;stroke-miterlimit:2;">
    <g transform="matrix(1.253668,0,-0,0.319325,-2085.328695,-155.280809)">
        <path d="M1761.605,915.304C1761.849,834.764 1771.373,782.03 1789.201,782.03C1807.762,782.03 1816.065,832.847 1816.065,915.304L1816.065,1250.885L1830.23,1250.885L1830.23,909.551C1830.23,810.794 1819.24,732.172 1790.667,732.172C1773.571,732.172 1762.581,766.689 1756.476,811.753C1751.836,768.607 1741.579,732.172 1723.018,732.172C1706.9,732.172 1697.863,761.895 1692.979,794.495L1692.979,737.925L1678.814,737.925L1678.814,1250.885L1692.979,1250.885L1692.979,925.851C1692.979,838.6 1702.015,782.03 1720.82,782.03C1739.136,782.03 1747.44,833.805 1747.44,916.263L1747.44,1250.885L1761.605,1250.885L1761.605,915.304Z" style="fill-rule:nonzero;"/>
        <path d="M1977.983,1010.225C1978.227,999.678 1978.227,985.296 1978.227,978.585C1977.25,824.217 1951.851,729.296 1914.486,729.296C1877.364,729.296 1850.744,839.558 1850.744,994.884C1850.744,1153.087 1877.609,1259.514 1916.439,1259.514C1946.478,1259.514 1966.748,1191.439 1976.029,1101.311L1965.039,1082.135C1955.27,1161.716 1941.105,1209.656 1916.439,1209.656C1886.645,1209.656 1867.107,1132.952 1865.398,1010.225L1977.983,1010.225ZM1913.997,779.154C1941.594,779.154 1962.108,844.352 1963.329,962.285L1865.886,962.285C1868.817,846.27 1887.866,779.154 1913.997,779.154Z" style="fill-rule:nonzero;"/>
        <path d="M2013.394,660.262L1999.23,660.262L1999.23,737.925L1985.065,737.925L1985.065,786.824L1999.23,786.824L1999.23,1131.993C1999.23,1210.615 2004.602,1254.72 2028.536,1254.72C2032.688,1254.72 2037.816,1253.761 2040.991,1252.802L2040.991,1203.903L2030.001,1203.903C2015.104,1203.903 2013.394,1174.18 2013.394,1122.405L2013.394,786.824L2041.235,786.824L2041.235,737.925L2013.394,737.925L2013.394,660.262Z" style="fill-rule:nonzero;"/>
        <path d="M2051.492,1093.641C2051.492,1195.274 2070.297,1259.514 2094.963,1259.514C2109.616,1259.514 2119.874,1235.544 2125.979,1203.903L2125.979,1250.885L2139.9,1250.885L2139.9,912.427C2139.9,802.165 2125.979,732.172 2097.161,732.172C2069.565,732.172 2056.133,799.289 2055.888,880.787L2069.32,880.787C2069.809,827.094 2077.135,778.195 2096.673,778.195C2115.478,778.195 2125.979,824.217 2125.979,909.551L2125.979,977.626C2120.851,951.738 2109.616,926.809 2094.963,926.809C2069.076,926.809 2051.492,997.761 2051.492,1093.641ZM2065.413,1093.641C2065.413,1024.607 2076.891,972.832 2095.452,972.832C2113.524,972.832 2126.468,1024.607 2126.468,1093.641C2126.468,1162.675 2113.524,1213.491 2095.696,1213.491C2077.38,1213.491 2065.413,1161.716 2065.413,1093.641Z" style="fill-rule:nonzero;"/>
        <rect x="2167.741" y="550" width="14.165" height="700.885" style="fill-rule:nonzero;"/>
        <path d="M2269.58,1209.656C2240.518,1209.656 2217.805,1121.446 2217.805,994.884C2217.805,871.199 2239.052,779.154 2269.091,779.154C2287.896,779.154 2300.84,810.794 2310.12,852.982L2319.889,821.341C2312.807,781.071 2296.688,729.296 2269.336,729.296C2231.237,729.296 2202.908,843.394 2202.908,994.884C2202.908,1146.375 2230.016,1259.514 2269.336,1259.514C2295.711,1259.514 2312.562,1205.821 2320.377,1164.592L2311.585,1134.869C2301.572,1177.057 2289.362,1209.656 2269.58,1209.656Z" style="fill-rule:nonzero;"/>
        <path d="M2410.983,1250.885L2425.147,1250.885L2425.147,911.468C2425.147,811.753 2413.425,732.172 2384.118,732.172C2367.512,732.172 2357.254,764.772 2352.858,794.495L2352.858,550L2338.694,550L2338.694,1250.885L2352.858,1250.885L2352.858,921.057C2352.858,837.641 2363.116,782.03 2382.653,782.03C2401.946,782.03 2410.983,831.888 2410.983,916.263L2410.983,1250.885Z" style="fill-rule:nonzero;"/>
        <path d="M2572.9,1010.225C2573.144,999.678 2573.144,985.296 2573.144,978.585C2572.167,824.217 2546.768,729.296 2509.403,729.296C2472.281,729.296 2445.662,839.558 2445.662,994.884C2445.662,1153.087 2472.526,1259.514 2511.356,1259.514C2541.395,1259.514 2561.666,1191.439 2570.946,1101.311L2559.956,1082.135C2550.187,1161.716 2536.023,1209.656 2511.356,1209.656C2481.562,1209.656 2462.024,1132.952 2460.315,1010.225L2572.9,1010.225ZM2508.914,779.154C2536.511,779.154 2557.025,844.352 2558.246,962.285L2460.803,962.285C2463.734,846.27 2482.783,779.154 2508.914,779.154Z" style="fill-rule:nonzero;"/>
        <path d="M2609.532,694.779C2609.532,640.127 2612.463,598.899 2629.314,598.899L2635.908,598.899L2635.908,550L2629.07,550C2604.16,550 2595.368,607.528 2595.368,696.697L2595.368,737.925L2581.203,737.925L2581.203,786.824L2595.368,786.824L2595.368,1250.885L2609.532,1250.885L2609.532,786.824L2635.175,786.824L2635.175,737.925L2609.532,737.925L2609.532,694.779Z" style="fill-rule:nonzero;"/>
    </g>
</svg>
